<?xml version="1.0" encoding="utf-8"?>
<!-- Generator: Adobe Illustrator 19.0.0, SVG Export Plug-In . SVG Version: 6.00 Build 0)  -->
<svg version="1.1" id="Layer_1" xmlns="http://www.w3.org/2000/svg" xmlns:xlink="http://www.w3.org/1999/xlink" x="0px" y="0px"
	 viewBox="-357 290.2 125.9 16.1" style="enable-background:new -357 290.2 125.9 16.1;" xml:space="preserve">
<style type="text/css">
	.st0{fill:#FFFFFF;stroke:#000000;stroke-miterlimit:10;}
	.st1{fill:#9E8305;}
	.st2{fill:#003C5B;}
	.st3{fill:#FEFEFE;}
</style>
<path class="st0" d="M-688.9,536.8L-688.9,536.8L-688.9,536.8z"/>
<g>
	<path class="st1" d="M-331.7,292.2v7.1c0,2.1,0.8,3.2,2.1,3.2c1.4,0,2.1-1,2.1-3.2v-7.1h2.6v6.9c0,3.8-1.8,5.6-4.9,5.6
		c-2.9,0-4.7-1.7-4.7-5.7v-6.9h2.8V292.2z"/>
	<path class="st1" d="M-314.6,304.2c-0.5,0.3-1.6,0.5-3,0.5c-4,0-6.1-2.7-6.1-6.2c0-4.2,2.8-6.6,6.4-6.6c1.4,0,2.4,0.3,2.9,0.5
		l-0.5,2.2c-0.5-0.2-1.3-0.5-2.2-0.5c-2.1,0-3.7,1.3-3.7,4.1c0,2.5,1.4,4,3.7,4c0.8,0,1.7-0.2,2.2-0.4L-314.6,304.2z"/>
	<path class="st1" d="M-313.5,301.7c0.7,0.4,1.8,0.8,2.9,0.8c1.2,0,1.8-0.5,1.8-1.3s-0.6-1.2-2-1.7c-1.9-0.7-3.2-1.9-3.2-3.6
		c0-2.1,1.7-3.7,4.4-3.7c1.3,0,2.3,0.3,3,0.6l-0.6,2.3c-0.5-0.2-1.3-0.6-2.4-0.6s-1.7,0.5-1.7,1.2c0,0.8,0.7,1.1,2.2,1.7
		c2.1,0.8,3,1.9,3,3.7c0,2.1-1.5,3.8-4.7,3.8c-1.3,0-2.6-0.4-3.3-0.8L-313.5,301.7z"/>
	<path class="st2" d="M-292.2,304.2c-0.5,0.3-1.6,0.5-3,0.5c-4,0-6.1-2.7-6.1-6.2c0-4.2,2.8-6.6,6.4-6.6c1.4,0,2.4,0.3,2.9,0.5
		l-0.5,2.2c-0.5-0.2-1.3-0.5-2.2-0.5c-2.1,0-3.7,1.3-3.7,4.1c0,2.5,1.4,4,3.7,4c0.8,0,1.7-0.2,2.2-0.4L-292.2,304.2z"/>
	<path class="st2" d="M-281,298.3c0,4-2.3,6.5-5.7,6.5c-3.5,0-5.5-2.8-5.5-6.3c0-3.7,2.2-6.5,5.7-6.5
		C-282.9,292-281,294.9-281,298.3z M-289.4,298.4c0,2.4,1.1,4.1,2.8,4.1c1.8,0,2.8-1.8,2.8-4.2c0-2.2-1-4.1-2.8-4.1
		C-288.4,294.2-289.4,296-289.4,298.4z"/>
	<path class="st2" d="M-280,304.6v-12.4h3.1l2.4,4.5c0.7,1.3,1.4,2.8,1.9,4.2h0.1c-0.2-1.6-0.2-3.3-0.2-5.1v-3.6h2.4v12.4h-2.8
		l-2.5-4.8c-0.7-1.3-1.5-2.9-2-4.4h-0.1c0.1,1.6,0.1,3.4,0.1,5.4v3.7L-280,304.6L-280,304.6z"/>
	<path class="st2" d="M-266.5,294.6h-3.1v-2.3h8.9v2.3h-3.2v10h-2.6L-266.5,294.6L-266.5,294.6z"/>
	<path class="st2" d="M-259.9,292.4c0.8-0.1,2.1-0.3,3.5-0.3c1.7,0,2.9,0.3,3.8,1c0.7,0.6,1.1,1.4,1.1,2.6c0,1.6-1.1,2.7-2.1,3v0.1
		c0.8,0.3,1.3,1.2,1.6,2.3c0.4,1.4,0.7,3,0.9,3.5h-2.7c-0.2-0.3-0.5-1.4-0.8-2.9s-0.8-2-1.9-2h-0.8v4.9h-2.6V292.4z M-257.3,297.7h1
		c1.3,0,2.1-0.7,2.1-1.8c0-1.1-0.7-1.7-1.9-1.7c-0.6,0-1,0.1-1.2,0.1V297.7z"/>
	<path class="st2" d="M-239.8,298.3c0,4-2.3,6.5-5.7,6.5c-3.5,0-5.5-2.8-5.5-6.3c0-3.7,2.2-6.5,5.7-6.5
		C-241.8,292-239.8,294.9-239.8,298.3z M-248.2,298.4c0,2.4,1.1,4.1,2.8,4.1c1.8,0,2.8-1.8,2.8-4.2c0-2.2-1-4.1-2.8-4.1
		C-247.2,294.2-248.2,296-248.2,298.4z"/>
	<path class="st2" d="M-238.8,292.2h2.6v10h4.6v2.3h-7.3L-238.8,292.2L-238.8,292.2z"/>
</g>
<g>
	<path class="st2" d="M-338.5,294.8L-338.5,294.8c0,0.1-0.1,0.1-0.1,0.2c-0.4,0.2-0.7,0.5-1.1,0.7c-0.4,0.3-0.8,0.5-1.2,0.8
		c-0.4,0.2-0.7,0.5-1.1,0.7c-0.3,0.2-0.7,0.4-1,0.7c-0.3,0.2-0.7,0.5-1.1,0.7c-0.3,0.2-0.7,0.4-1,0.7c-0.3,0.2-0.6,0.4-0.9,0.6
		c-0.4,0.3-0.8,0.5-1.1,0.7c0,0-0.1,0-0.1,0.1c-0.1,0.1-0.2,0.1-0.3,0c-0.3-0.2-0.6-0.4-0.9-0.6c-0.4-0.3-0.8-0.5-1.2-0.8
		c-0.7-0.5-1.4-0.9-2.1-1.4c-0.4-0.3-0.9-0.6-1.3-0.8c-0.2-0.1-0.4-0.3-0.6-0.4c-0.1,0-0.1,0-0.1,0v0.1c0,2.5,0,5,0,7.5
		c0,0.1,0,0.1,0,0.2s0,0.1-0.1,0.1h-0.1c-0.3-0.2-0.7-0.3-1-0.5c-0.1-0.1-0.2-0.1-0.2-0.3c0-1.4,0-2.9,0-4.3c0-1.2,0-2.3,0-3.5
		c0-0.1,0-0.2-0.2-0.3c-0.2-0.1-0.5-0.3-0.7-0.5c-0.1-0.1-0.2-0.1-0.3-0.2l-0.1-0.1l0,0c0-0.1,0.1-0.1,0.1-0.1
		c0.6-0.3,1.2-0.6,1.8-0.9c0.9-0.5,1.9-1,2.9-1.5c0.9-0.5,1.7-0.9,2.6-1.3c0.4-0.2,0.8-0.4,1.2-0.6c0.1-0.1,0.3-0.1,0.4-0.2
		c0,0,0,0,0.1,0c0.2,0,0.3,0.1,0.5,0.2s0.5,0.2,0.7,0.4c0.6,0.3,1.3,0.6,1.9,1c0.3,0.1,0.5,0.3,0.8,0.4s0.5,0.3,0.8,0.4
		c0.6,0.3,1.1,0.6,1.7,0.8c0.5,0.2,1,0.5,1.5,0.8C-339.1,294.4-338.8,294.6-338.5,294.8C-338.5,294.7-338.5,294.7-338.5,294.8z"/>
	<path class="st3" d="M-356.4,294.9c0.1,0.1,0.2,0.1,0.3,0.2c0.2,0.1,0.3,0.2,0.5,0.3c0.1,0.1,0.3,0.2,0.4,0.3c0,0,0,0,0,0.1
		c0,0,0,0,0,0.1c0,2.7,0,5.3,0,8c0,0.1,0,0.1,0.1,0.1c0.4,0.2,0.7,0.4,1.1,0.5c0.1,0.1,0.1,0.1,0.1-0.1c0-2.1,0-4.2,0-6.3
		c0-0.5,0-1,0-1.5v-0.1c0,0,0,0,0.1,0c0.6,0.4,1.2,0.8,1.9,1.2c0.6,0.4,1.2,0.8,1.9,1.2c0.6,0.4,1.2,0.8,1.8,1.2
		c0.2,0.1,0.4,0.2,0.6,0.4c0.1,0,0.1,0.1,0.1,0.1c0.1,0.1,0.1,0.1,0.2,0s0.3-0.2,0.5-0.3c0.5-0.3,1-0.7,1.6-1
		c0.5-0.3,0.9-0.6,1.4-0.9c0.2-0.2,0.5-0.3,0.7-0.5c0.5-0.3,1-0.6,1.4-0.9c0.2-0.1,0.4-0.3,0.6-0.4c0.4-0.3,0.8-0.5,1.2-0.8
		c0.3-0.2,0.6-0.4,0.9-0.6c0.2-0.1,0.3-0.2,0.5-0.4c0,3.7,0,7.3,0,11c0,0.1,0,0.1-0.1,0.1c-5.9,0-11.8,0-17.8,0
		c-0.1,0-0.1,0-0.1-0.1C-356.4,302.2-356.4,298.5-356.4,294.9z"/>
	<path class="st3" d="M-347.5,290.3c-0.3,0.1-0.5,0.3-0.8,0.4c-0.2,0.1-0.3,0.2-0.5,0.3c-0.9,0.5-1.8,0.9-2.7,1.4
		c-0.8,0.4-1.6,0.8-2.4,1.2c-0.8,0.5-1.7,0.9-2.6,1.3c0-1.5,0-3,0-4.5C-353.4,290.3-350.4,290.3-347.5,290.3z"/>
	<path class="st3" d="M-338.5,294.8c-0.2-0.1-0.3-0.2-0.5-0.2c-0.5-0.2-1-0.5-1.5-0.7c-0.6-0.3-1.3-0.6-2-1
		c-0.2-0.1-0.5-0.2-0.8-0.4c-0.3-0.2-0.5-0.3-0.8-0.4c-0.6-0.3-1.1-0.6-1.7-0.8c-0.5-0.3-1-0.5-1.6-0.8c-0.1,0-0.1,0-0.2-0.1
		c2.9,0,5.9,0,8.8,0c0.1,0,0.1,0,0.1,0.1C-338.5,291.9-338.5,293.3-338.5,294.8z"/>
	<path class="st1" d="M-353.2,301.3c0-0.2,0-0.4,0.1-0.6c0-0.1,0-0.3,0-0.4c0-0.2,0-0.4,0.1-0.6c0-0.2,0-0.4,0.1-0.6
		c0-0.2,0-0.4,0.1-0.6c0-0.1,0-0.1,0-0.2s0-0.1,0.1,0c0.2,0.2,0.5,0.3,0.7,0.5c0.3,0.2,0.6,0.4,0.9,0.6c0.7,0.5,1.4,0.9,2.1,1.4
		c0.5,0.4,1.1,0.7,1.6,1c0.1,0,0.1,0,0.1,0c0.5-0.3,0.9-0.6,1.4-0.9c0.7-0.5,1.4-0.9,2.1-1.4c0.6-0.4,1.1-0.7,1.7-1.1
		c0.1,0,0.1-0.1,0.1,0c0,0.2,0.1,0.5,0.1,0.7s0.1,0.5,0.1,0.7s0.1,0.4,0.1,0.7c0,0.2,0.1,0.5,0.1,0.7c0,0.1,0,0.2,0,0.4
		c0,0.1,0,0.1-0.1,0.2c-0.2,0.1-0.4,0.3-0.6,0.4c-0.6,0.5-1.3,0.9-1.9,1.4s-1.2,0.9-1.8,1.4c-0.4,0.4-0.9,0.7-1.3,1.1
		c-0.1,0.1-0.1,0.1-0.2,0c-0.4-0.4-0.8-0.7-1.2-1c-0.6-0.5-1.2-0.9-1.7-1.3c-0.6-0.5-1.3-0.9-1.9-1.4c-0.3-0.2-0.5-0.4-0.8-0.6
		C-353.2,301.4-353.2,301.4-353.2,301.3z"/>
</g>
</svg>
