<?xml version="1.0" encoding="utf-8"?>
<!-- Generator: Adobe Illustrator 19.0.0, SVG Export Plug-In . SVG Version: 6.00 Build 0)  -->
<svg version="1.1" id="Layer_1" xmlns="http://www.w3.org/2000/svg" xmlns:xlink="http://www.w3.org/1999/xlink" x="0px" y="0px"
	 viewBox="-412 290.2 15.9 16.1" style="enable-background:new -412 290.2 15.9 16.1;" xml:space="preserve">
<style type="text/css">
	.st0{fill:#003C5B;}
	.st1{fill:#9E8305;}
</style>
<g>
	<path class="st0" d="M-396.2,295.1L-396.2,295.1c0,0.1,0,0.1-0.1,0.1c-0.3,0.2-0.7,0.5-1,0.7c-0.4,0.2-0.7,0.5-1.1,0.7
		c-0.3,0.2-0.6,0.4-1,0.7c-0.3,0.2-0.6,0.4-0.9,0.6s-0.6,0.4-0.9,0.6s-0.6,0.4-0.9,0.6s-0.5,0.4-0.8,0.6s-0.7,0.5-1,0.7
		c0,0-0.1,0-0.1,0.1c-0.1,0.1-0.2,0.1-0.3,0c-0.2-0.2-0.5-0.4-0.8-0.5c-0.3-0.2-0.7-0.5-1-0.7c-0.6-0.4-1.3-0.8-1.9-1.3
		c-0.4-0.3-0.8-0.5-1.1-0.8c-0.2-0.1-0.4-0.3-0.6-0.4c-0.1,0-0.1,0-0.1,0v0.1c0,2.3,0,4.6,0,6.9c0,0.1,0,0.1,0,0.2s0,0.1-0.1,0.1
		h-0.1c-0.3-0.2-0.6-0.3-0.9-0.5c-0.1-0.1-0.1-0.1-0.1-0.2c0-1.3,0-2.7,0-4c0-1.1,0-2.2,0-3.3c0-0.1,0-0.2-0.1-0.3
		c-0.2-0.1-0.4-0.3-0.6-0.4c-0.1-0.1-0.2-0.1-0.3-0.2c0,0,0-0.1-0.1-0.1l0,0c0-0.1,0.1-0.1,0.1-0.1c0.5-0.3,1.1-0.5,1.6-0.8
		c0.8-0.5,1.7-0.9,2.5-1.3s1.5-0.8,2.3-1.2c0.3-0.2,0.7-0.4,1-0.6c0.1-0.1,0.2-0.1,0.4-0.2c0,0,0,0,0.1,0c0.2,0,0.3,0.1,0.4,0.2
		c0.2,0.1,0.4,0.2,0.7,0.3c0.6,0.3,1.1,0.6,1.7,0.9c0.2,0.1,0.5,0.2,0.7,0.4c0.2,0.1,0.5,0.3,0.7,0.4c0.5,0.2,1,0.5,1.5,0.8
		c0.4,0.2,0.9,0.5,1.3,0.7C-396.8,294.7-396.6,294.9-396.2,295.1C-396.3,295-396.2,295.1-396.2,295.1z"/>
	<path class="st1" d="M-409.3,301.1c0-0.2,0-0.4,0.1-0.6c0-0.1,0-0.3,0-0.4c0-0.2,0-0.4,0.1-0.6c0-0.2,0-0.4,0.1-0.6
		c0-0.2,0-0.4,0.1-0.6c0-0.1,0-0.1,0-0.2s0-0.1,0.1,0c0.2,0.1,0.4,0.3,0.7,0.4c0.3,0.2,0.5,0.3,0.8,0.5c0.6,0.4,1.2,0.8,1.9,1.3
		c0.5,0.3,0.9,0.6,1.4,1h0.1c0.4-0.3,0.8-0.6,1.2-0.8c0.6-0.4,1.3-0.9,1.9-1.3c0.5-0.4,1-0.7,1.5-1c0,0,0.1-0.1,0.1,0
		c0,0.2,0.1,0.4,0.1,0.6s0.1,0.4,0.1,0.6s0,0.4,0.1,0.6c0,0.2,0.1,0.4,0.1,0.7c0,0.1,0,0.2,0,0.3c0,0.1,0,0.1-0.1,0.1
		c-0.2,0.1-0.4,0.3-0.5,0.4c-0.5,0.4-1.1,0.8-1.7,1.3c-0.5,0.4-1.1,0.8-1.6,1.3c-0.4,0.3-0.8,0.7-1.2,1c-0.1,0.1-0.1,0.1-0.2,0
		c-0.3-0.3-0.7-0.6-1-0.9c-0.5-0.4-1-0.8-1.5-1.2c-0.6-0.5-1.2-0.9-1.7-1.3c-0.2-0.2-0.5-0.4-0.7-0.5
		C-409.3,301.2-409.3,301.2-409.3,301.1z"/>
</g>
</svg>
